Coordinates
version=1
nRows=9
nColumns=63
inDegrees=yes

Units are S.I. units (second, meters, Newtons, ...)
If the header above contains a line with 'inDegrees', this indicates whether rotational values are in degrees (yes) or radians (no).

endheader
time	pelvis_tilt	pelvis_list	pelvis_rotation	pelvis_tx	pelvis_ty	pelvis_tz	hip_flexion_r	hip_adduction_r	hip_rotation_r	knee_angle_r	knee_angle_r_beta	ankle_angle_r	subtalar_angle_r	mtp_angle_r	hip_flexion_l	hip_adduction_l	hip_rotation_l	knee_angle_l	knee_angle_l_beta	ankle_angle_l	subtalar_angle_l	mtp_angle_l	L5_S1_Flex_Ext	L5_S1_Lat_Bending	L5_S1_axial_rotation	L4_L5_Flex_Ext	L4_L5_Lat_Bending	L4_L5_axial_rotation	L3_L4_Flex_Ext	L3_L4_Lat_Bending	L3_L4_axial_rotation	L2_L3_Flex_Ext	L2_L3_Lat_Bending	L2_L3_axial_rotation	L1_L2_Flex_Ext	L1_L2_Lat_Bending	L1_L2_axial_rotation	L1_T12_Flex_Ext	L1_T12_Lat_Bending	L1_T12_axial_rotation	Abs_r3	Abs_r2	Abs_r1	Abs_t1	Abs_t2	neck_flexion	neck_bending	neck_rotation	arm_flex_r	arm_add_r	arm_rot_r	elbow_flex_r	pro_sup_r	wrist_flex_r	wrist_dev_r	arm_flex_l	arm_add_l	arm_rot_l	elbow_flex_l	pro_sup_l	wrist_flex_l	wrist_dev_l
1.305085	-0.918938	-1.878491	108.130770	0.402626	0.796769	1.028772	2.783218	-1.800255	-24.540413	15.016107	0.262081	31.411517	5.316148	0.000000	3.719517	-0.394645	3.147466	11.392609	0.198839	27.908757	15.217885	0.000000	0.226488	-0.221949	-0.640157	0.420610	-0.295192	-0.680166	0.372097	-0.539646	-0.680166	0.258853	-0.539646	-0.560137	0.210316	-0.452598	-0.520127	0.129415	-0.343799	-0.480117	1.617779	-2.510728	-3.560359	0.000000	0.000000	27.815796	-6.269985	0.118472	-2.877301	-15.224160	39.981786	70.242718	90.285930	14.380257	31.017478	6.795799	-15.333840	51.044827	69.326284	75.890160	1.597971	29.656832
1.322034	-0.953168	-2.023494	107.334577	0.403544	0.796434	1.029720	3.046281	-1.860600	-23.874655	14.947984	0.260892	31.357184	5.532537	0.000000	3.872502	-0.346157	2.447660	11.402800	0.199016	27.927149	15.144205	0.000000	0.231770	-0.221694	-0.442565	0.430420	-0.294853	-0.470225	0.380775	-0.539027	-0.470225	0.264890	-0.539027	-0.387244	0.215222	-0.452079	-0.359584	0.132433	-0.343404	-0.331923	1.655511	-2.507849	-2.461411	0.000000	0.000000	27.842134	-6.519376	-0.089906	-3.493820	-15.019052	38.551193	70.921289	90.438400	13.459643	29.771098	7.234200	-15.270320	51.648457	69.344835	72.405415	1.009903	29.254571
1.338983	-0.991123	-2.197824	106.450181	0.404607	0.796070	1.030878	3.353100	-1.930231	-23.178930	14.879601	0.259698	31.303277	5.849726	0.000000	4.075128	-0.295344	1.678684	11.429180	0.199477	27.936751	15.043115	0.000000	0.238018	-0.221453	-0.220830	0.442023	-0.294533	-0.234632	0.391040	-0.538442	-0.234632	0.272031	-0.538442	-0.193226	0.221024	-0.451588	-0.179424	0.136003	-0.343031	-0.165622	1.700139	-2.505124	-1.228189	0.000000	0.000000	27.869442	-6.784347	-0.291213	-4.146621	-14.711546	36.745016	71.645398	89.952031	12.448066	28.479503	7.739056	-15.192781	52.245345	69.346180	68.747933	0.710628	28.810559
1.355932	-1.038844	-2.399793	105.473785	0.405846	0.795680	1.032213	3.706663	-2.004474	-22.349372	14.826213	0.258766	31.223400	6.108387	0.000000	4.316516	-0.240636	0.833873	11.463591	0.200077	27.933597	14.916058	0.000000	0.244674	-0.222328	0.021595	0.454384	-0.295696	0.022945	0.401975	-0.540568	0.022945	0.279638	-0.540568	0.018896	0.227204	-0.453371	0.017546	0.139807	-0.344386	0.016196	1.747681	-2.515019	0.120105	0.000000	0.000000	27.896541	-7.023270	-0.460783	-4.806109	-14.311450	34.599930	72.402957	88.796078	11.298816	27.201438	8.242281	-15.106867	52.699342	69.365684	65.336937	0.620191	28.294309
1.372881	-1.092968	-2.624019	104.480255	0.407155	0.795269	1.033724	4.087564	-2.091346	-21.567738	14.794206	0.258208	31.123974	6.426791	0.000000	4.600939	-0.184817	-0.032338	11.516073	0.200993	27.915255	14.787567	0.000000	0.251124	-0.223929	0.266256	0.466363	-0.297826	0.282897	0.412572	-0.544462	0.282897	0.287010	-0.544462	0.232974	0.233194	-0.456637	0.216333	0.143493	-0.346866	0.199692	1.793757	-2.533133	1.480838	0.000000	0.000000	27.922284	-7.206840	-0.576948	-5.444208	-13.832985	32.136950	73.175232	87.403952	10.150074	25.967571	8.670345	-15.001188	52.825998	69.413984	62.797516	0.815707	27.615927
1.389831	-1.160640	-2.865487	103.481099	0.408534	0.794837	1.035376	4.492170	-2.191570	-20.797130	14.791780	0.258165	30.997945	6.725714	0.000000	4.915486	-0.123575	-0.907214	11.579944	0.202108	27.876853	14.643441	0.000000	0.256663	-0.227588	0.508384	0.476649	-0.302692	0.540158	0.421671	-0.553358	0.540158	0.293340	-0.553358	0.444836	0.238337	-0.464098	0.413062	0.146657	-0.352534	0.381288	1.833317	-2.574523	2.827477	0.000000	0.000000	27.944360	-7.320844	-0.656859	-6.043809	-13.308483	29.429045	73.930553	86.114403	9.042527	24.787435	8.991781	-14.907878	52.593075	69.497681	61.242272	1.181524	26.736030
1.406780	-1.240109	-3.113273	102.512589	0.409913	0.794400	1.037137	4.908187	-2.303911	-20.059188	14.823806	0.258724	30.843807	6.981143	0.000000	5.248334	-0.058471	-1.753949	11.656847	0.203450	27.821315	14.476991	0.000000	0.260221	-0.232696	0.742235	0.483257	-0.309486	0.788625	0.427517	-0.565777	0.788625	0.297407	-0.565777	0.649456	0.241641	-0.474514	0.603066	0.148690	-0.360446	0.556676	1.858733	-2.632305	4.128090	0.000000	0.000000	27.961125	-7.379446	-0.713093	-6.603121	-12.795241	26.587019	74.632657	85.000537	7.890755	23.664546	9.206415	-14.854412	52.086647	69.575666	60.638576	1.456718	25.523838
1.423729	-1.327615	-3.361660	101.611778	0.411237	0.793973	1.038963	5.325711	-2.428495	-19.401405	14.888434	0.259852	30.661897	7.208550	0.000000	5.593534	0.010969	-2.523164	11.746700	0.205019	27.734520	14.266037	0.000000	0.261920	-0.238992	0.956685	0.486412	-0.317859	1.016478	0.430308	-0.581084	1.016478	0.299348	-0.581084	0.837099	0.243219	-0.487351	0.777306	0.149661	-0.370198	0.717514	1.870868	-2.703520	5.320794	0.000000	0.000000	27.971825	-7.402961	-0.766909	-7.082293	-12.334276	23.759361	75.184770	84.086639	6.754402	22.549805	9.286954	-14.861422	51.324661	69.611456	60.979776	1.536147	23.898181
1.440678	-1.417058	-3.601917	100.803194	0.412441	0.793579	1.040806	5.728573	-2.564923	-18.877615	14.981218	0.261472	30.457364	7.457272	0.000000	5.938342	0.077264	-3.226031	11.845733	0.206747	27.623947	14.062952	0.000000	0.261255	-0.245061	1.143037	0.485177	-0.325931	1.214477	0.429216	-0.595841	1.214477	0.298588	-0.595841	1.000157	0.242601	-0.499728	0.928717	0.149281	-0.379599	0.857278	1.866118	-2.772179	6.357227	0.000000	0.000000	27.977312	-7.406010	-0.807517	-7.454488	-11.956953	21.053100	75.521967	83.386747	5.633985	21.444961	9.190375	-14.910900	50.242630	69.569459	62.245605	1.470149	21.871218
